# xmcd
#
# Track frame offsets: 
#        150
#        17235
#        33029
#        55002
#        69124
#        82233
#        97960
#        115523
#        135543
#
# Disc length: 2053 seconds
#
# Revision: 0
# Processed by: cddbd v1.5.2PL0 Copyright (c) Steve Scherf et al.
# Submitted via: ExactAudioCopy v1.0b4
#
DISCID=64080309
DTITLE=Spirit Level - Kolossi Blues
DYEAR=2014
DGENRE=Blues Rock
TTITLE0=What You See Is What You Get
TTITLE1=It's Gone
TTITLE2=It's A Hard Life
TTITLE3=Foolish Pride
TTITLE4=Kolossi Blues
TTITLE5=The Gambler
TTITLE6=Sarah
TTITLE7=She's So Hot
TTITLE8=Feel The Blues
EXTD=
EXTT0=
EXTT1=
EXTT2=
EXTT3=
EXTT4=
EXTT5=
EXTT6=
EXTT7=
EXTT8=
PLAYORDER=
